<svg aria-hidden="true" style="position: absolute; width: 0; height: 0; overflow: hidden;" version="1.1" xmlns="http://www.w3.org/2000/svg" xmlns:xlink="http://www.w3.org/1999/xlink">
<defs>
<symbol id="icon-Facebook" viewBox="0 0 31 32">
<title>Facebook</title>
<path d="M28.16 16.388c0-7.112-5.731-12.878-12.8-12.878s-12.8 5.766-12.8 12.878c0 6.428 4.681 11.756 10.8 12.722v-8.999h-3.25v-3.723h3.25v-2.837c0-3.228 1.911-5.010 4.835-5.010 1.401 0 2.865 0.252 2.865 0.252v3.169h-1.614c-1.59 0-2.086 0.993-2.086 2.011v2.416h3.55l-0.567 3.723h-2.983v8.999c6.119-0.966 10.8-6.294 10.8-12.722z"></path>
</symbol>
<symbol id="icon-Instagram" viewBox="0 0 31 32">
<title>Instagram</title>
<path d="M15.358 6.555c3.078 0 3.442 0.014 4.652 0.068 1.125 0.050 1.732 0.238 2.137 0.396 0.536 0.207 0.922 0.459 1.323 0.86 0.405 0.405 0.652 0.788 0.864 1.323 0.158 0.405 0.346 1.017 0.396 2.137 0.054 1.215 0.068 1.579 0.068 4.653s-0.014 3.442-0.068 4.653c-0.050 1.125-0.238 1.732-0.396 2.137-0.207 0.536-0.459 0.922-0.86 1.322-0.405 0.405-0.788 0.652-1.323 0.864-0.405 0.158-1.017 0.346-2.137 0.396-1.215 0.054-1.58 0.068-4.653 0.068s-3.442-0.014-4.653-0.068c-1.125-0.050-1.732-0.238-2.137-0.396-0.536-0.207-0.922-0.459-1.323-0.86-0.405-0.405-0.652-0.788-0.864-1.323-0.158-0.405-0.346-1.017-0.396-2.137-0.054-1.215-0.068-1.58-0.068-4.653s0.014-3.442 0.068-4.653c0.050-1.125 0.238-1.732 0.396-2.137 0.207-0.536 0.459-0.922 0.86-1.323 0.405-0.405 0.788-0.652 1.323-0.864 0.405-0.158 1.017-0.346 2.137-0.396 1.21-0.054 1.575-0.068 4.653-0.068h0.001zM15.358 4.481c-3.127 0-3.518 0.014-4.747 0.068-1.224 0.054-2.065 0.252-2.794 0.536-0.76 0.297-1.404 0.688-2.042 1.332-0.644 0.639-1.035 1.282-1.332 2.038-0.284 0.734-0.482 1.57-0.536 2.794-0.054 1.233-0.068 1.624-0.068 4.751s0.014 3.518 0.068 4.747c0.054 1.224 0.252 2.065 0.536 2.794 0.297 0.76 0.688 1.404 1.332 2.042 0.639 0.638 1.282 1.035 2.038 1.328 0.734 0.284 1.57 0.482 2.794 0.536 1.228 0.054 1.62 0.068 4.747 0.068s3.519-0.014 4.747-0.068c1.224-0.054 2.065-0.252 2.794-0.536 0.756-0.292 1.4-0.688 2.038-1.328s1.035-1.282 1.328-2.038c0.284-0.734 0.482-1.57 0.536-2.794 0.054-1.228 0.068-1.62 0.068-4.747s-0.014-3.518-0.068-4.747c-0.054-1.224-0.252-2.065-0.536-2.794-0.284-0.765-0.675-1.408-1.318-2.047-0.639-0.639-1.282-1.035-2.038-1.327-0.734-0.284-1.57-0.482-2.794-0.536-1.233-0.058-1.624-0.072-4.751-0.072l-0.001 0.001z"></path>
<path d="M15.357 10.082c-3.266 0-5.917 2.65-5.917 5.917s2.65 5.917 5.917 5.917 5.917-2.65 5.917-5.917c0-3.266-2.65-5.917-5.917-5.917zM15.357 19.837c-2.119 0-3.838-1.718-3.838-3.838s1.718-3.838 3.838-3.838c2.119 0 3.838 1.718 3.838 3.838s-1.719 3.838-3.838 3.838z"></path>
<path d="M22.888 9.849c0 0.763-0.618 1.381-1.381 1.381s-1.381-0.618-1.381-1.381 0.618-1.381 1.381-1.381c0.763 0 1.381 0.618 1.381 1.381z"></path>
</symbol>
<symbol id="icon-LinkedIn" viewBox="0 0 31 32">
<title>LinkedIn</title>
<path d="M24.72 4.48h-18.72c-1.188 0-2.16 0.972-2.16 2.16v18.72c0 1.188 0.972 2.16 2.16 2.16h18.72c1.188 0 2.16-0.972 2.16-2.16v-18.72c0-1.188-0.972-2.16-2.16-2.16zM12.48 23.2h-2.88v-10.080h2.88v10.080zM11.040 11.68c-0.796 0-1.44-0.644-1.44-1.44s0.644-1.44 1.44-1.44c0.796 0 1.44 0.644 1.44 1.44s-0.644 1.44-1.44 1.44zM22.56 23.2h-2.88v-5.76c0-0.796-0.644-1.44-1.44-1.44s-1.44 0.644-1.44 1.44v5.76h-2.88v-10.080h2.88v1.786c0.594-0.814 1.503-1.786 2.52-1.786 1.791 0 3.24 1.611 3.24 3.6v6.48z"></path>
</symbol>
<symbol id="icon-Youtube" viewBox="0 0 31 32">
<title>Youtube</title>
<path d="M27.639 9.86c-0.146-0.541-0.431-1.034-0.826-1.431s-0.888-0.683-1.429-0.83c-2.004-0.55-10.024-0.559-10.024-0.559s-8.018-0.009-10.024 0.517c-0.54 0.154-1.032 0.444-1.428 0.842s-0.683 0.892-0.833 1.433c-0.529 2.004-0.534 6.162-0.534 6.162s-0.005 4.178 0.52 6.162c0.294 1.097 1.158 1.964 2.257 2.259 2.025 0.55 10.022 0.559 10.022 0.559s8.019 0.009 10.024-0.516c0.541-0.147 1.034-0.432 1.431-0.828s0.683-0.888 0.831-1.429c0.53-2.003 0.534-6.159 0.534-6.159s0.026-4.179-0.521-6.184zM12.795 19.846l0.006-7.68 6.665 3.846-6.671 3.834z"></path>
</symbol>
<symbol id="icon-Company-Logo" viewBox="0 0 73 32">
<title>Company-Logo</title>
<path d="M12.776 2.906c0.323 0.16 0.686 0.621 0.929 0.893 2.090 2.335 3.187 5.309 2.993 8.44-0.188 3.030-1.684 5.72-3.93 7.708-0.425-0.291-0.814-0.704-1.155-1.089-1.908-2.157-2.953-5.189-2.771-8.065 0.188-2.965 1.704-5.932 3.933-7.887z"></path>
<path d="M21.672 7.146c0.006 0.011 0.013 0.021 0.019 0.032 0.119 0.242 0.153 0.627 0.184 0.895 0.157 1.398 0.027 2.8-0.465 4.124-1.229 3.308-4.069 5.742-7.209 7.186-0.037-0-0.012 0.003-0.069-0.030 0.192-0.314 0.46-0.595 0.681-0.889 0.339-0.46 0.645-0.943 0.918-1.445 0.962-1.77 1.422-3.716 1.42-5.724-0-0.57-0.013-1.14-0.178-1.69 0.294-0.327 0.655-0.602 1.006-0.867 1.129-0.854 2.266-1.449 3.693-1.591z"></path>
<path d="M3.84 7.16c0.169 0.007 0.34 0.029 0.508 0.054 1.29 0.196 2.418 0.883 3.426 1.678 0.281 0.222 0.589 0.453 0.801 0.745-0.536 2.752 0.175 5.639 1.598 8.019 0.227 0.378 0.473 0.745 0.736 1.1 0.126 0.169 0.275 0.322 0.388 0.5l-0.040 0.052c-2.347-1.003-4.545-2.779-5.959-4.902-1.484-2.227-1.974-4.626-1.457-7.245z"></path>
<path d="M23.968 13.303c0.374-0.045 1.213-0.092 1.526 0.108 0.016 0.047 0.021 0.052 0.022 0.109 0.006 0.22-0.137 0.548-0.212 0.753-0.498 1.413-1.35 2.675-2.475 3.665-2.202 1.947-5.056 2.645-7.938 2.46-0.544-0.057-1.106-0.095-1.629-0.262 2.415-0.743 4.712-2.26 6.377-4.155 0.409-0.466 0.709-1.007 1.107-1.475 0.756-0.889 2.126-1.124 3.221-1.202z"></path>
<path d="M0.897 13.376c1.125-0.133 2.652 0.053 3.58 0.753 0.551 0.417 0.883 1.19 1.339 1.717 1.424 1.649 3.208 2.95 5.215 3.801 0.427 0.183 0.867 0.374 1.319 0.485l-0.903 0.151c-2.629 0.378-5.354-0.091-7.604-1.554-1.532-0.996-2.611-2.363-3.245-4.067-0.093-0.25-0.232-0.521-0.28-0.782-0.028-0.152-0.003-0.252 0.086-0.381 0.141-0.104 0.325-0.103 0.495-0.123z"></path>
<path d="M46.817 11.103c0.876-0.007 1.832-0.086 2.698 0.040 0.557 0.081 1.122 0.281 1.461 0.758 0.249 0.351 0.33 0.844 0.253 1.264-0.094 0.514-0.42 0.811-0.832 1.088 0.099 0.042 0.196 0.088 0.291 0.139 0.364 0.197 0.622 0.538 0.729 0.937 0.146 0.545 0.029 1.106-0.242 1.59-0.061 0.092-0.133 0.174-0.213 0.25-0.832 0.789-2.656 0.637-3.731 0.627-0.207-0.002-0.478 0.016-0.633-0.141-0.037-0.079-0.053-0.13-0.058-0.219-0.071-1.154-0.006-2.352-0.007-3.51-0-0.82-0.083-1.889 0.024-2.681 0.083-0.103 0.135-0.103 0.259-0.141zM49.753 15.163c-0.464-0.303-1.246-0.215-1.785-0.214l0.002 1.496c0.597 0.004 1.294 0.095 1.823-0.225 0.125-0.184 0.25-0.456 0.214-0.685-0.026-0.166-0.117-0.281-0.255-0.372zM49.531 12.504c-0.443-0.266-1.064-0.199-1.562-0.197v1.436c0.534 0.004 1.171 0.084 1.638-0.218 0.126-0.18 0.247-0.438 0.199-0.666-0.035-0.166-0.134-0.27-0.275-0.356z"></path>
<path d="M38.646 12.659c0.134-0.011 0.268-0.004 0.399 0.021 0.401 0.080 0.596 0.375 0.811 0.69 0.012-0.11 0.021-0.229 0.046-0.336 0.027-0.112 0.088-0.181 0.188-0.235 0.162-0.086 0.51-0.092 0.679-0.029 0.124 0.046 0.261 0.153 0.304 0.283 0.126 0.383 0.077 4.133 0.004 4.645-0.048 0.338-0.153 0.671-0.323 0.967-0.275 0.478-0.742 0.789-1.268 0.932-0.741 0.2-1.583 0.136-2.244-0.262-0.295-0.177-0.433-0.406-0.511-0.735 0.025-0.119 0.054-0.235 0.156-0.312 0.331-0.25 1.046 0.17 1.414 0.238 0.316 0.059 0.658 0.027 0.921-0.172 0.434-0.327 0.505-0.931 0.579-1.43-0.29 0.31-0.566 0.56-0.994 0.665-0.464 0.114-0.972 0.036-1.371-0.229-0.525-0.348-0.818-0.945-0.926-1.551-0.131-0.738-0.017-1.621 0.431-2.239 0.427-0.589 1.014-0.806 1.704-0.911zM38.725 13.789c-0.345 0.13-0.536 0.29-0.684 0.634-0.182 0.423-0.188 1.036-0.009 1.46 0.094 0.224 0.283 0.46 0.52 0.54 0.157 0.053 0.346 0.030 0.508 0.019 0.284-0.102 0.446-0.221 0.581-0.497 0.208-0.424 0.214-1.022 0.056-1.465-0.092-0.257-0.274-0.51-0.531-0.622-0.132-0.057-0.298-0.076-0.44-0.068z"></path>
<path d="M67.332 12.698c0.339-0.045 0.673-0.030 0.993 0.103 0.442 0.183 0.672 0.517 0.847 0.943 0.090-0.225 0.189-0.452 0.348-0.638 0.251-0.296 0.58-0.413 0.961-0.428 0.439-0.017 0.888 0.084 1.21 0.399 0.212 0.207 0.341 0.485 0.412 0.769 0.188 0.758 0.083 2.385 0.086 3.241 0 0.131 0.017 0.545-0.086 0.623-0.174 0.131-0.792 0.102-1.009 0.072-0.127-0.018-0.205-0.086-0.257-0.201-0.080-0.177-0.037-0.493-0.035-0.689 0.008-0.635 0.165-2.39-0.211-2.853-0.086-0.106-0.209-0.173-0.346-0.182-0.202-0.014-0.46 0.056-0.607 0.2-0.521 0.51-0.348 2.324-0.344 3.038 0.001 0.144 0.006 0.302-0.011 0.444-0.008 0.063-0.030 0.136-0.088 0.169-0.222 0.127-0.762 0.108-1.007 0.051-0.128-0.030-0.182-0.073-0.227-0.197-0.075-0.205-0.033-0.509-0.029-0.726 0.011-0.636 0.162-2.218-0.161-2.695-0.097-0.143-0.242-0.23-0.412-0.258-0.193-0.032-0.395-0.006-0.552 0.118-0.633 0.5-0.46 2.251-0.457 2.975 0.001 0.174 0.036 0.423-0.004 0.586-0.016 0.068-0.036 0.109-0.094 0.147-0.204 0.134-0.755 0.105-0.999 0.057-0.102-0.020-0.168-0.083-0.212-0.176-0.062-0.132-0.081-3.938-0.058-4.315 0.006-0.105 0.028-0.217 0.076-0.312 0.062-0.121 0.166-0.2 0.293-0.241 0.301-0.097 0.677 0.010 0.943 0.158 0.064 0.238 0.018 0.549 0.008 0.797 0.031-0.063 0.063-0.126 0.095-0.189 0.235-0.454 0.456-0.639 0.936-0.792z"></path>
<path d="M61.856 12.718c1.402-0.029 2.566 1.075 2.612 2.476s-1.043 2.579-2.443 2.643c-0.921 0.042-1.795-0.415-2.285-1.196s-0.523-1.767-0.084-2.579c0.438-0.812 1.279-1.325 2.201-1.345zM61.683 13.832c-0.376 0.167-0.581 0.359-0.727 0.753-0.174 0.471-0.146 1.128 0.078 1.577 0.121 0.242 0.307 0.439 0.567 0.525 0.178 0.060 0.345 0.069 0.528 0.026 0.361-0.151 0.576-0.344 0.725-0.714 0.186-0.464 0.184-1.084-0.029-1.539-0.134-0.284-0.371-0.518-0.676-0.608-0.149-0.044-0.312-0.034-0.465-0.020z"></path>
<path d="M33.475 12.726c1.411-0.064 2.606 1.027 2.672 2.438s-1.023 2.609-2.434 2.677c-1.414 0.068-2.614-1.024-2.68-2.438s1.028-2.613 2.442-2.677zM33.873 13.866c-0.163-0.056-0.331-0.055-0.501-0.033-0.378 0.187-0.594 0.381-0.738 0.794-0.163 0.468-0.139 1.135 0.096 1.574 0.128 0.24 0.323 0.415 0.585 0.495 0.161 0.049 0.343 0.054 0.506 0.015 0.36-0.15 0.571-0.344 0.716-0.713 0.184-0.469 0.169-1.087-0.043-1.545-0.125-0.269-0.338-0.49-0.622-0.588z"></path>
<path d="M56.119 12.753c0.909-0.147 1.826 0.206 2.403 0.923s0.723 1.689 0.383 2.545c-0.34 0.855-1.112 1.463-2.024 1.59-1.388 0.194-2.674-0.766-2.883-2.152s0.736-2.682 2.12-2.906zM56.327 13.829c-0.379 0.161-0.597 0.345-0.751 0.737-0.18 0.46-0.162 1.097 0.051 1.545 0.129 0.27 0.347 0.493 0.636 0.584 0.145 0.046 0.309 0.046 0.458 0.027 0.378-0.16 0.598-0.338 0.755-0.731 0.182-0.457 0.179-1.087-0.033-1.533-0.126-0.265-0.34-0.488-0.62-0.588-0.158-0.056-0.33-0.055-0.496-0.041z"></path>
<path d="M43.332 12.701c0.32-0.038 0.629-0.032 0.944 0.041 0.479 0.111 0.881 0.39 1.125 0.819 0.131 0.23 0.206 0.483 0.242 0.744 0.056 0.404 0.088 2.957-0.004 3.308-0.077 0.098-0.154 0.134-0.275 0.16-0.205 0.043-0.654 0.070-0.819-0.084-0.145-0.134-0.115-0.413-0.117-0.593-0.24 0.355-0.482 0.641-0.918 0.75-0.488 0.121-0.94-0.021-1.36-0.264-0.179-0.165-0.315-0.334-0.392-0.568-0.13-0.395-0.088-0.927 0.114-1.29 0.49-0.882 1.645-0.829 2.489-1.078l0.052-0.016c-0.034-0.105-0.067-0.213-0.111-0.315-0.478-1.102-1.669 0.102-2.245-0.201-0.116-0.061-0.2-0.185-0.23-0.311-0.039-0.168 0.006-0.276 0.097-0.415 0.309-0.472 0.889-0.591 1.405-0.689zM44.358 15.645c-0.351 0.096-1.009 0.203-1.219 0.521-0.068 0.104-0.074 0.24-0.030 0.355 0.031 0.081 0.092 0.151 0.146 0.218 0.363 0.024 0.59-0.002 0.867-0.254 0.168-0.153 0.322-0.4 0.314-0.637-0.002-0.059-0.019-0.119-0.032-0.176l-0.047-0.027z"></path>
<path d="M29.015 13.649c0.126-0.399 1.104-2.311 1.416-2.49 0.162-0.093 1.026-0.107 1.2-0.028 0.111 0.051 0.123 0.081 0.174 0.185-0.089 0.495-1.182 2.155-1.506 2.697l-0.568 0.945c0.002 0.568 0.102 2.301-0.096 2.712-0.070 0.053-0.119 0.083-0.206 0.103-0.267 0.062-0.797 0.044-1.033-0.104-0.182-0.24-0.087-2.23-0.087-2.67-0.29-0.464-2.165-3.457-2.115-3.743 0.062-0.089 0.102-0.111 0.202-0.151 0.316-0.009 0.959-0.093 1.221 0.066 0.339 0.206 1.271 2.058 1.397 2.478z"></path>
<path d="M52.226 11.104c0.332-0.009 0.874-0.091 1.16 0.080 0.080 0.546 0.049 1.124 0.050 1.675l0.003 2.551c0 0.666 0.073 1.468-0.013 2.122-0.017 0.13-0.097 0.173-0.192 0.247-0.346 0.011-0.877 0.097-1.161-0.128-0.067-0.255-0.109-6.145-0.045-6.378 0.031-0.11 0.103-0.123 0.196-0.17z"></path>
<path d="M12.912 20.312c0.457 0.163 0.918 0.293 1.398 0.371 0.827 0.134 1.787 0.095 2.53 0.525 0.548 0.318 1.11 1.063 1.265 1.681 0.028 0.113 0.020 0.123-0.038 0.217-0.574 0.207-1.132 0.158-1.703-0.029-1.376-0.45-2.778-1.453-3.452-2.764z"></path>
<path d="M12.653 20.314c0.029-0.003 0.057 0.013 0.085 0.021-0.001 0.013-0.001 0.027-0.004 0.040-0.071 0.293-1.203 1.487-1.465 1.694-0.904 0.714-2.246 1.28-3.412 1.141-0.031-0.007-0.074-0.015-0.103-0.028-0.063-0.029-0.103-0.052-0.119-0.12-0.044-0.182 0.059-0.394 0.142-0.552 0.267-0.511 0.685-1.11 1.209-1.386 0.646-0.34 1.6-0.338 2.318-0.466 0.46-0.082 0.903-0.206 1.349-0.343z"></path>
</symbol>
</defs>
</svg>
